<svg width="207.156" height="24.438" viewBox="0 0 207.156 24.438" xmlns="http://www.w3.org/2000/svg"><g id="svgGroup" stroke-linecap="round" fill-rule="evenodd" font-size="9pt" stroke="#ffffff" stroke-width="0.25mm" fill="#ffffff" style="stroke:#ffffff;stroke-width:0.25mm;fill:#ffffff"><path d="M 48.188 6.656 L 51.094 21.344 L 54.375 6.656 L 55.813 6.656 L 55.813 16.188 L 53.563 24.406 L 48.656 24.406 L 44.125 6.656 L 48.188 6.656 Z M 61.438 21.344 L 64.719 6.656 L 68.813 6.656 L 63.844 24.406 L 58.969 24.406 L 57.094 17.125 L 57.094 6.656 L 58.469 6.656 L 61.438 21.344 Z M 173.031 9.219 L 173.031 18.938 Q 173.031 19.988 173.306 20.58 A 1.906 1.906 0 0 0 173.313 20.594 A 2.205 2.205 0 0 0 173.703 21.173 A 1.951 1.951 0 0 0 174.109 21.5 A 2.842 2.842 0 0 0 175.147 21.874 A 3.294 3.294 0 0 0 175.266 21.891 Q 175.906 21.969 176.625 21.969 L 176.625 24.281 A 10.778 10.778 0 0 1 175.813 24.375 Q 175.576 24.396 175.273 24.411 A 20.283 20.283 0 0 1 174.984 24.422 Q 174.5 24.438 174.031 24.438 A 14.804 14.804 0 0 1 173.078 24.406 Q 172.707 24.382 172.419 24.34 A 4.978 4.978 0 0 1 172.25 24.313 A 3.093 3.093 0 0 1 171.437 24.057 A 2.431 2.431 0 0 1 170.594 23.391 Q 170 22.656 169.703 21.766 Q 169.406 20.875 169.328 20.031 A 27.917 27.917 0 0 1 169.294 19.633 Q 169.26 19.202 169.252 18.895 A 6.892 6.892 0 0 1 169.25 18.719 L 169.25 9.219 L 166.938 9.219 L 166.938 6.656 L 169.25 6.656 L 169.25 1.656 L 173.031 1.656 L 173.031 6.656 L 175.844 6.656 L 175.844 9.219 L 173.031 9.219 Z M 99.5 23.5 L 99.5 20.25 A 3.967 3.967 0 0 0 100.609 21.125 A 2.922 2.922 0 0 0 101.886 21.466 A 3.465 3.465 0 0 0 102.031 21.469 A 3.197 3.197 0 0 0 103.734 21 A 4.271 4.271 0 0 0 104.925 19.905 A 4.981 4.981 0 0 0 105.047 19.734 A 6.091 6.091 0 0 0 105.619 18.683 A 7.879 7.879 0 0 0 105.922 17.844 A 7.89 7.89 0 0 0 106.236 16.001 A 9.177 9.177 0 0 0 106.25 15.5 A 8.971 8.971 0 0 0 106.054 13.602 A 8.142 8.142 0 0 0 105.953 13.188 Q 105.656 12.094 105.141 11.25 Q 104.625 10.406 103.875 9.906 A 2.974 2.974 0 0 0 102.187 9.406 A 3.494 3.494 0 0 0 101.182 9.548 A 3.135 3.135 0 0 0 100.703 9.734 Q 100.031 10.063 99.5 10.688 L 99.5 7.344 A 6.179 6.179 0 0 1 100.745 6.815 A 7.147 7.147 0 0 1 101.094 6.719 A 7.445 7.445 0 0 1 102.906 6.5 A 8.094 8.094 0 0 1 104.834 6.739 A 9.056 9.056 0 0 1 105 6.781 Q 106.063 7.063 106.984 7.719 A 6.803 6.803 0 0 1 108.101 8.726 A 8.561 8.561 0 0 1 108.672 9.438 A 7.074 7.074 0 0 1 109.454 10.853 A 9.241 9.241 0 0 1 109.844 12 A 11.504 11.504 0 0 1 110.166 13.907 A 14.391 14.391 0 0 1 110.219 15.156 Q 110.219 16.938 109.797 18.625 A 10.191 10.191 0 0 1 109.099 20.582 A 8.667 8.667 0 0 1 108.516 21.609 A 6.572 6.572 0 0 1 106.359 23.672 A 5.47 5.47 0 0 1 104.362 24.363 A 7.129 7.129 0 0 1 103.313 24.437 Q 102.219 24.438 101.219 24.188 A 7.287 7.287 0 0 1 100.343 23.912 A 5.35 5.35 0 0 1 99.5 23.5 Z M 193.844 18.813 L 193.844 19.063 A 5.564 5.564 0 0 0 193.846 19.202 Q 193.85 19.361 193.862 19.583 A 24.536 24.536 0 0 0 193.875 19.797 Q 193.906 20.281 194 20.781 A 3.651 3.651 0 0 0 194.165 21.383 A 3.092 3.092 0 0 0 194.297 21.688 Q 194.5 22.094 194.844 22.219 L 193.844 24.313 A 1.998 1.998 0 0 1 193.358 24.25 A 2.681 2.681 0 0 1 192.984 24.125 A 3.376 3.376 0 0 1 192.323 23.756 A 3.999 3.999 0 0 1 192.109 23.594 A 3.835 3.835 0 0 1 191.4 22.841 A 3.62 3.62 0 0 1 191.391 22.828 Q 191.094 22.406 190.938 21.906 A 2.537 2.537 0 0 1 190.453 22.666 Q 190.216 22.928 189.892 23.166 A 4.802 4.802 0 0 1 189.703 23.297 Q 188.781 23.906 187.656 24.188 L 187.656 21.813 Q 188.406 21.656 189.016 21.203 Q 189.625 20.75 190.063 20.125 L 190.063 13.531 A 24.613 24.613 0 0 0 190.047 12.635 Q 190.016 11.778 189.92 11.178 A 6.792 6.792 0 0 0 189.906 11.094 A 4.568 4.568 0 0 0 189.794 10.598 Q 189.639 10.062 189.375 9.766 Q 189 9.344 188.453 9.234 A 5.178 5.178 0 0 0 187.946 9.161 Q 187.68 9.134 187.379 9.128 A 9.667 9.667 0 0 0 187.156 9.125 A 4.907 4.907 0 0 0 186.169 9.222 A 4.379 4.379 0 0 0 185.859 9.297 A 8.335 8.335 0 0 0 185.074 9.559 A 7.057 7.057 0 0 0 184.734 9.703 A 5.919 5.919 0 0 0 184.201 9.978 A 4.634 4.634 0 0 0 183.828 10.219 Q 183.529 10.434 183.349 10.576 A 4.823 4.823 0 0 0 183.25 10.656 L 181.844 8.5 A 2.525 2.525 0 0 1 182.109 8.251 Q 182.381 8.027 182.781 7.797 Q 183.406 7.438 184.219 7.156 A 11.126 11.126 0 0 1 185.374 6.828 A 13.321 13.321 0 0 1 185.984 6.703 A 11.081 11.081 0 0 1 187.808 6.532 A 12.265 12.265 0 0 1 187.969 6.531 Q 188.906 6.531 189.797 6.719 A 5.338 5.338 0 0 1 191.212 7.226 A 4.971 4.971 0 0 1 191.422 7.344 A 4.355 4.355 0 0 1 192.599 8.381 A 5.021 5.021 0 0 1 192.703 8.516 A 3.949 3.949 0 0 1 193.215 9.456 A 5.388 5.388 0 0 1 193.469 10.344 Q 193.688 11.438 193.766 12.547 Q 193.844 13.656 193.844 14.75 L 193.844 18.813 Z M 17 22.875 L 17 19.75 A 7.811 7.811 0 0 0 17.361 19.968 Q 17.689 20.154 18.109 20.359 A 19.664 19.664 0 0 0 19.253 20.872 A 22.036 22.036 0 0 0 19.531 20.984 Q 20.281 21.281 21.109 21.469 A 7.913 7.913 0 0 0 21.958 21.615 A 6.156 6.156 0 0 0 22.656 21.656 A 7.254 7.254 0 0 0 24.126 21.516 Q 25.419 21.249 26.281 20.469 Q 27.594 19.281 27.594 16.813 A 4.477 4.477 0 0 0 27.434 15.585 A 3.316 3.316 0 0 0 26.453 14 A 3.907 3.907 0 0 0 24.552 13.069 A 5.564 5.564 0 0 0 23.469 12.969 Q 22.875 12.969 22.281 13.047 A 7.573 7.573 0 0 0 21.359 13.225 A 6.756 6.756 0 0 0 21.156 13.281 L 21.531 10.188 A 9.849 9.849 0 0 1 22.491 10.046 A 11.464 11.464 0 0 1 22.859 10.016 Q 23.439 9.977 23.796 9.97 A 7.485 7.485 0 0 1 23.938 9.969 A 7.845 7.845 0 0 1 25.617 10.142 A 6.403 6.403 0 0 1 26.859 10.547 A 6.876 6.876 0 0 1 28.64 11.682 A 6.369 6.369 0 0 1 29.063 12.094 Q 29.969 13.063 30.438 14.281 Q 30.906 15.5 30.906 16.813 Q 30.906 18.568 30.51 19.832 A 5.63 5.63 0 0 1 30.062 20.891 A 7.376 7.376 0 0 1 29.186 22.154 A 5.674 5.674 0 0 1 27.984 23.203 A 6.937 6.937 0 0 1 26.153 24.05 A 6.314 6.314 0 0 1 25.406 24.219 Q 24.377 24.386 23.568 24.425 A 9.808 9.808 0 0 1 23.094 24.437 A 11.867 11.867 0 0 1 21.429 24.324 A 10.623 10.623 0 0 1 21.063 24.266 A 13.867 13.867 0 0 1 20.027 24.043 A 10.932 10.932 0 0 1 19.297 23.828 A 18.822 18.822 0 0 1 18.638 23.596 Q 18.34 23.484 18.077 23.372 A 10.828 10.828 0 0 1 17.906 23.297 A 47.087 47.087 0 0 1 17.627 23.171 Q 17.234 22.992 17 22.875 Z M 203.563 0 L 203.563 18.906 A 6.543 6.543 0 0 0 203.59 19.526 Q 203.619 19.833 203.68 20.089 A 2.579 2.579 0 0 0 203.844 20.578 A 2.284 2.284 0 0 0 204.15 21.073 A 1.804 1.804 0 0 0 204.625 21.484 A 2.958 2.958 0 0 0 205.454 21.815 A 3.564 3.564 0 0 0 205.766 21.875 A 8.83 8.83 0 0 0 206.587 21.954 A 11.013 11.013 0 0 0 207.156 21.969 L 207.156 24.281 A 10.317 10.317 0 0 1 206.421 24.367 A 11.385 11.385 0 0 1 206.312 24.375 Q 206.076 24.396 205.781 24.411 A 19.58 19.58 0 0 1 205.5 24.422 Q 205.031 24.438 204.563 24.438 A 14.09 14.09 0 0 1 203.625 24.406 Q 203.156 24.375 202.781 24.313 A 3.327 3.327 0 0 1 201.968 24.039 A 2.552 2.552 0 0 1 201.125 23.375 A 5.219 5.219 0 0 1 200.219 21.766 A 7.682 7.682 0 0 1 199.91 20.617 A 6.557 6.557 0 0 1 199.828 20.031 A 27.917 27.917 0 0 1 199.794 19.633 Q 199.76 19.202 199.752 18.895 A 6.892 6.892 0 0 1 199.75 18.719 L 199.75 18.344 L 199.75 0 L 203.563 0 Z M 85.875 19.719 L 87.25 21.813 A 7.144 7.144 0 0 1 85.67 23.279 A 6.498 6.498 0 0 1 84.844 23.75 Q 83.469 24.406 81.344 24.406 Q 79.625 24.406 78.125 23.703 Q 76.625 23 75.563 21.781 A 9.296 9.296 0 0 1 74.038 19.337 A 10.687 10.687 0 0 1 73.875 18.938 A 9.52 9.52 0 0 1 73.26 15.902 A 10.979 10.979 0 0 1 73.25 15.438 Q 73.25 13.656 73.828 12.063 A 9.59 9.59 0 0 1 74.905 9.932 A 8.628 8.628 0 0 1 75.406 9.266 Q 76.406 8.063 77.734 7.313 A 6.555 6.555 0 0 1 80.594 6.469 L 80.594 9.469 A 4.111 4.111 0 0 0 79.543 9.811 A 3.375 3.375 0 0 0 78.688 10.406 Q 77.938 11.125 77.516 12.047 Q 77.094 12.969 76.922 13.938 A 13.455 13.455 0 0 0 76.817 14.625 Q 76.776 14.958 76.76 15.249 A 6.353 6.353 0 0 0 76.75 15.594 A 8.811 8.811 0 0 0 76.872 17.085 A 7.462 7.462 0 0 0 77.047 17.859 A 5.254 5.254 0 0 0 77.562 19.085 A 4.596 4.596 0 0 0 77.969 19.672 Q 78.594 20.438 79.516 20.891 Q 80.381 21.316 81.59 21.342 A 7.399 7.399 0 0 0 81.75 21.344 A 3.918 3.918 0 0 0 82.019 21.334 Q 82.279 21.316 82.609 21.266 A 5.44 5.44 0 0 0 83.209 21.138 A 6.937 6.937 0 0 0 83.703 20.984 Q 84.281 20.781 84.859 20.469 A 4.388 4.388 0 0 0 85.788 19.803 A 4.089 4.089 0 0 0 85.875 19.719 Z M 94.438 24.281 L 94.438 0 L 98.219 0 L 98.219 22.188 Q 98.188 22.625 98.125 23.188 A 21.411 21.411 0 0 0 98.04 24.148 A 19.528 19.528 0 0 0 98.031 24.281 L 94.438 24.281 Z M 114.625 24.281 L 114.625 1.25 L 118.375 1.25 L 118.375 24.281 L 114.625 24.281 Z M 119.656 1.25 L 121.25 1.25 A 9.322 9.322 0 0 1 124.156 1.719 A 7.857 7.857 0 0 1 126.734 3.125 Q 127.875 4.063 128.578 5.391 A 6.091 6.091 0 0 1 129.257 7.765 A 7.397 7.397 0 0 1 129.281 8.375 Q 129.281 10.125 128.688 11.547 A 6.834 6.834 0 0 1 127.548 13.408 A 6.323 6.323 0 0 1 127.031 13.938 Q 125.969 14.906 124.469 15.438 A 9.26 9.26 0 0 1 122.285 15.914 A 11.416 11.416 0 0 1 121.156 15.969 L 119.656 15.969 L 119.656 13.219 L 121.813 13.219 A 4.101 4.101 0 0 0 123.172 12.984 A 3.367 3.367 0 0 0 124.228 12.378 A 3.968 3.968 0 0 0 124.406 12.219 A 3.058 3.058 0 0 0 124.907 11.594 Q 125.091 11.295 125.239 10.927 A 5.602 5.602 0 0 0 125.312 10.734 A 5.262 5.262 0 0 0 125.541 9.85 Q 125.619 9.405 125.644 8.892 A 10.491 10.491 0 0 0 125.656 8.375 Q 125.656 7.813 125.5 7.078 A 3.601 3.601 0 0 0 125.043 5.947 A 4.312 4.312 0 0 0 124.859 5.672 A 3.416 3.416 0 0 0 124.107 4.922 A 4.534 4.534 0 0 0 123.5 4.547 A 3.594 3.594 0 0 0 122.696 4.253 Q 122.041 4.094 121.188 4.094 L 119.656 4.094 L 119.656 1.25 Z M 19.938 12.844 L 19.781 14.094 L 16.844 14.094 A 3.478 3.478 0 0 1 16.847 13.953 Q 16.856 13.746 16.886 13.389 A 35.242 35.242 0 0 1 16.906 13.156 A 166.129 166.129 0 0 1 16.958 12.603 Q 17.004 12.111 17.063 11.516 A 146.774 146.774 0 0 1 17.164 10.52 A 188.521 188.521 0 0 1 17.281 9.438 A 773.492 773.492 0 0 0 17.531 7.156 A 532.926 532.926 0 0 1 17.867 4.336 A 699.434 699.434 0 0 1 18.25 1.25 L 29.656 1.25 L 29.656 4.313 L 21.063 4.313 A 643.982 643.982 0 0 1 20.914 5.404 Q 20.769 6.464 20.657 7.249 A 170.907 170.907 0 0 1 20.562 7.906 A 207.963 207.963 0 0 0 20.476 8.506 Q 20.357 9.334 20.298 9.801 A 28.724 28.724 0 0 0 20.297 9.812 Q 20.219 10.438 20.203 10.578 A 9.232 9.232 0 0 0 20.198 10.627 Q 20.188 10.725 20.188 10.75 L 19.938 12.844 Z M 141.656 9.5 L 141.656 6.563 A 7.868 7.868 0 0 1 143.866 6.992 A 7.085 7.085 0 0 1 144.781 7.391 A 7.252 7.252 0 0 1 147.141 9.328 A 8.844 8.844 0 0 1 148.41 11.54 A 10.369 10.369 0 0 1 148.625 12.125 A 10.531 10.531 0 0 1 149.147 15.054 A 12.081 12.081 0 0 1 149.156 15.531 A 10.629 10.629 0 0 1 148.861 18.067 A 9.533 9.533 0 0 1 148.609 18.922 A 9.213 9.213 0 0 1 147.684 20.859 A 8.086 8.086 0 0 1 147.094 21.672 Q 146.125 22.844 144.719 23.563 A 7.976 7.976 0 0 1 141.656 24.406 L 141.656 21.406 A 3.652 3.652 0 0 0 143.63 20.22 A 5.302 5.302 0 0 0 144.203 19.438 A 6.669 6.669 0 0 0 145.049 17.15 A 9.064 9.064 0 0 0 145.188 15.531 A 10.127 10.127 0 0 0 145.077 14.008 A 8.7 8.7 0 0 0 144.953 13.359 A 6.988 6.988 0 0 0 144.545 12.114 A 5.999 5.999 0 0 0 144.25 11.531 A 5.079 5.079 0 0 0 143.591 10.625 A 4.366 4.366 0 0 0 143.125 10.188 Q 142.469 9.656 141.656 9.5 Z M 140.375 6.594 L 140.375 9.5 A 3.55 3.55 0 0 0 138.366 10.757 A 5.139 5.139 0 0 0 137.875 11.469 A 6.826 6.826 0 0 0 137.092 13.63 A 9.391 9.391 0 0 0 136.938 15.375 A 10.196 10.196 0 0 0 137.067 17.022 A 8.969 8.969 0 0 0 137.172 17.563 A 7.971 7.971 0 0 0 137.5 18.653 A 6.497 6.497 0 0 0 137.844 19.406 A 4.76 4.76 0 0 0 138.47 20.312 A 4.107 4.107 0 0 0 138.922 20.75 Q 139.563 21.281 140.375 21.406 L 140.375 24.406 A 8.148 8.148 0 0 1 138.361 24.012 A 7.075 7.075 0 0 1 137.281 23.547 Q 135.906 22.813 134.938 21.625 A 8.255 8.255 0 0 1 133.662 19.427 A 9.694 9.694 0 0 1 133.453 18.844 A 10.827 10.827 0 0 1 132.94 15.691 A 12.188 12.188 0 0 1 132.938 15.469 A 10.899 10.899 0 0 1 133.189 13.095 A 9.562 9.562 0 0 1 133.469 12.094 A 8.656 8.656 0 0 1 134.521 9.97 A 7.879 7.879 0 0 1 134.984 9.359 Q 135.969 8.188 137.344 7.469 A 8.032 8.032 0 0 1 140.067 6.628 A 9.263 9.263 0 0 1 140.375 6.594 Z M 81.875 9.438 L 81.875 6.5 A 8.081 8.081 0 0 1 83.949 6.961 A 7.178 7.178 0 0 1 84.922 7.406 Q 86.281 8.156 87.25 9.344 A 8.592 8.592 0 0 1 88.726 12.039 A 9.705 9.705 0 0 1 88.734 12.063 Q 89.25 13.594 89.25 15.25 A 12.082 12.082 0 0 1 89.156 16.75 L 78.438 16.75 L 78.438 14 L 85.656 14 Q 85.656 13.188 85.391 12.438 Q 85.125 11.688 84.609 11.047 Q 84.094 10.406 83.406 9.969 A 3.54 3.54 0 0 0 81.875 9.437 Z M 154.063 6.656 L 157.438 6.656 L 157.844 8.469 L 157.844 18.031 L 157.844 18.094 L 157.844 24.281 L 154.063 24.281 L 154.063 6.656 Z M 186.375 21.875 L 186.375 24.406 A 0.739 0.739 0 0 1 186.298 24.421 Q 186.214 24.432 186.092 24.436 A 4.13 4.13 0 0 1 185.969 24.437 Q 184.906 24.438 183.922 24.156 A 4.685 4.685 0 0 1 182.187 23.25 A 3.919 3.919 0 0 1 181.28 22.143 A 4.954 4.954 0 0 1 181.016 21.594 A 5.245 5.245 0 0 1 180.72 20.563 Q 180.594 19.883 180.594 19.063 A 5.706 5.706 0 0 1 180.719 17.84 A 4.334 4.334 0 0 1 181.203 16.578 A 5.388 5.388 0 0 1 182.766 14.859 A 6.668 6.668 0 0 1 184.563 13.97 A 7.71 7.71 0 0 1 184.937 13.859 Q 186.156 13.531 187.406 13.531 L 188.781 13.531 L 188.781 15.75 L 188.094 15.75 A 6.968 6.968 0 0 0 187.205 15.809 A 8.261 8.261 0 0 0 186.781 15.875 A 3.946 3.946 0 0 0 185.5 16.344 A 2.717 2.717 0 0 0 184.643 17.135 A 3.284 3.284 0 0 0 184.516 17.328 A 2.502 2.502 0 0 0 184.226 18.046 Q 184.125 18.461 184.125 18.969 Q 184.125 20.375 184.703 21.063 Q 185.281 21.75 186.375 21.875 Z M 7.313 14.75 L 7.313 11.094 A 74.44 74.44 0 0 1 9.287 12.028 A 81.399 81.399 0 0 1 9.422 12.094 Q 10.5 12.625 11.375 13.391 A 6.201 6.201 0 0 1 12.777 15.182 A 7.029 7.029 0 0 1 12.812 15.25 Q 13.312 16.22 13.368 17.609 A 8.884 8.884 0 0 1 13.375 17.969 Q 13.375 19.094 12.953 20.156 A 6.442 6.442 0 0 1 11.766 22.078 A 6.439 6.439 0 0 1 10.358 23.254 A 7.652 7.652 0 0 1 9.875 23.531 A 7.076 7.076 0 0 1 8.186 24.154 A 8.747 8.747 0 0 1 7.312 24.312 L 7.313 21.313 A 3.838 3.838 0 0 0 8.566 20.781 Q 9.875 19.894 9.875 17.906 Q 9.875 16.813 9.156 16.094 A 6.906 6.906 0 0 0 8.35 15.409 Q 7.884 15.067 7.313 14.75 Z M 6.031 0.969 L 6.031 4.25 Q 5.031 4.594 4.375 5.453 A 3.609 3.609 0 0 0 3.962 6.127 A 2.508 2.508 0 0 0 3.719 7.187 A 3.689 3.689 0 0 0 3.811 8.036 A 2.566 2.566 0 0 0 4.375 9.156 A 5.792 5.792 0 0 0 5.384 10.06 A 7.246 7.246 0 0 0 6.031 10.469 L 6.031 14.031 Q 5 13.531 3.969 12.953 Q 2.938 12.375 2.094 11.594 Q 1.25 10.813 0.703 9.781 Q 0.156 8.75 0.156 7.313 A 6.929 6.929 0 0 1 0.289 5.931 A 5.565 5.565 0 0 1 0.625 4.844 Q 1.094 3.75 1.891 2.922 A 5.969 5.969 0 0 1 3.766 1.609 Q 4.844 1.125 6.031 0.969 Z M 0 22.75 L 0.656 20.063 A 4.84 4.84 0 0 0 1.017 20.248 Q 1.346 20.4 1.766 20.547 A 24.22 24.22 0 0 0 3.156 20.984 Q 3.875 21.188 4.594 21.313 A 8.713 8.713 0 0 0 5.373 21.414 A 6.905 6.905 0 0 0 5.938 21.438 L 6.031 21.438 L 6.031 24.406 L 5.969 24.406 A 15.664 15.664 0 0 1 4.62 24.346 A 17.3 17.3 0 0 1 4.422 24.328 Q 3.625 24.25 2.813 24.063 Q 2 23.875 1.266 23.547 Q 0.531 23.219 0 22.75 Z M 159.125 10.625 L 159.125 7.438 A 5.672 5.672 0 0 1 159.984 7.051 Q 160.395 6.904 160.865 6.796 A 9.268 9.268 0 0 1 161 6.766 Q 162.044 6.542 163.799 6.532 A 29.158 29.158 0 0 1 163.969 6.531 L 163.969 10.469 A 6.512 6.512 0 0 0 163.164 10.297 Q 162.566 10.206 161.844 10.188 Q 161.156 10.188 160.453 10.297 A 7.657 7.657 0 0 0 159.362 10.547 A 6.909 6.909 0 0 0 159.125 10.625 Z M 7.313 4.031 L 7.313 0.875 Q 8.688 0.906 10.109 1.172 A 8.824 8.824 0 0 1 11.099 1.413 Q 11.859 1.648 12.406 2 A 19.534 19.534 0 0 1 12.203 2.426 A 26.253 26.253 0 0 1 11.969 2.891 A 601.468 601.468 0 0 1 11.727 3.359 A 489.697 489.697 0 0 1 11.5 3.797 A 43.157 43.157 0 0 1 11.395 3.999 Q 11.245 4.284 11.129 4.493 A 17.714 17.714 0 0 1 11.125 4.5 A 14.427 14.427 0 0 1 11.088 4.566 Q 10.965 4.785 10.938 4.813 Q 10.833 4.771 10.699 4.686 A 2.963 2.963 0 0 1 10.563 4.594 Q 10.416 4.489 10.184 4.391 A 3.964 3.964 0 0 0 9.937 4.297 Q 9.531 4.156 8.906 4.063 Q 8.406 3.988 7.686 4.012 A 12.606 12.606 0 0 0 7.313 4.031 Z" vector-effect="non-scaling-stroke"/></g></svg>